<?xml version="1.0" encoding="utf-8"?>
<!-- Generator: Adobe Illustrator 22.0.1, SVG Export Plug-In . SVG Version: 6.00 Build 0)  -->
<svg version="1.1" xmlns="http://www.w3.org/2000/svg" xmlns:xlink="http://www.w3.org/1999/xlink" x="0px" y="0px"
	 viewBox="0 0 100 100" style="enable-background:new 0 0 100 100;" xml:space="preserve">
<style type="text/css">
	.st0{fill:#1E1E1C;}
	.st1{fill:url(#SVGID_1_);}
	.st2{fill:url(#SVGID_2_);}
	.st3{fill:url(#SVGID_3_);}
	.st4{fill:#838382;}
	.st5{fill:url(#SVGID_4_);}
	.st6{fill:#B3B3B2;}
	.st7{fill:url(#SVGID_5_);}
	.st8{fill:#FFFFFF;}
	.st9{fill-rule:evenodd;clip-rule:evenodd;fill:#FFFFFF;}
	.st10{fill:#F6F6F5;}
	.st11{fill-rule:evenodd;clip-rule:evenodd;fill:#232322;}
	.st12{fill-rule:evenodd;clip-rule:evenodd;fill:#6C6B6B;}
	.st13{fill-rule:evenodd;clip-rule:evenodd;fill:#F0F0F0;}
	.st14{fill-rule:evenodd;clip-rule:evenodd;fill:#4B4A4A;}
	.st15{fill:url(#SVGID_6_);}
	.st16{fill-rule:evenodd;clip-rule:evenodd;fill:url(#SVGID_7_);}
	.st17{fill:#1D090A;}
	.st18{fill:#CD1719;}
</style>
<g id="Слой_1">
</g>
<g id="Warnish">
	<g>
		<g>
			<g>
				<g>
					<path class="st0" d="M37.7,40.6L37.7,40.6L37.7,40.6L37.7,40.6L37.7,40.6l-0.2-0.2l0.1-0.2c0.4-0.4,10.4-13.4,16.8-21.8
						c1.3-1.7,2.4-3.2,3.2-4.3c0.9-1.2,1.5-2,1.8-2.5l0,0l0,0l0,0c0.6-0.7,1-1.3,1.4-1.8c0.3-0.4,0.5-0.7,0.6-0.8L61.7,9l0.2,0.1
						l2,1.3l0.4,0.2l0,0l1.9,1.3l0.2,0.1l-0.1,0.2c-0.9,1.4-8.6,11.2-14.5,18.7c-3.2,4-5.7,7.3-6.4,8.1c0.3,0.1,0.6,0.3,0.9,0.4v0
						l0.1,0v0c1.2,0.5,2.3,0.8,3.6,1c1.2,0.2,2.4,0.3,3.7,0.3v0H54c1.9,0,3.7-0.2,5.4-0.7c0.3-0.1,0.7-0.2,1-0.3
						c0.3-0.1,0.6-0.2,0.9-0.3l0,0l0,0l0,0c0.4-0.1,0.7-0.3,1.1-0.4c0.3-0.1,0.7-0.3,1-0.5l0,0c0.3-0.1,0.5-0.3,0.7-0.4
						c0.2-0.1,0.5-0.3,0.7-0.4l0,0c0.1-0.1,0.3-0.2,0.4-0.3c0.4-0.2,0.7-0.5,1-0.7l0.2-0.2l0.2,0.2l1.6,2l0,0v0l1.5,1.9l0.1,0.2
						l-0.2,0.2c-1.7,1.5-3.8,2.6-6.1,3.5c-0.4,0.2-0.9,0.3-1.4,0.5c-2.8,0.9-5.8,1.4-8.3,1.4v0h0h-0.2v0c-4.1,0-8.2-1.2-11.9-3.2
						c-0.7-0.4-1.4-0.8-2.1-1.3C39,41.6,38.4,41.1,37.7,40.6L37.7,40.6L37.7,40.6z"/>
					<linearGradient id="SVGID_1_" gradientUnits="userSpaceOnUse" x1="43.7315" y1="42.2693" x2="75.9815" y2="14.8798">
						<stop  offset="0" style="stop-color:#1E1E1C"/>
						<stop  offset="1" style="stop-color:#9D9D9C"/>
					</linearGradient>
					<path class="st1" d="M66.5,37.1c-0.4,0.3-1,0.7-1.4,1c-0.5,0.3-1,0.6-1.5,0.9c-0.7,0.3-1.4,0.7-2.1,0.9
						c-2.2,0.8-4.8,1.3-7.5,1.3l0,0v0c-2.9,0-5.3-0.4-7.7-1.4c-0.4-0.2-0.8-0.4-1.3-0.6c-0.1,0,19.6-24.8,21-27l-1.9-1.3l-0.4-0.2
						l-2-1.3c-0.1,0.2-0.8,1.1-1.9,2.6c-2.2,3.1-21.4,27.9-21.9,28.5v0c0.6-0.2,1.3-0.5,1.9-0.7c2,0.7,3.3,1.7,4.9,2.3
						c3.7,1.4,6.4,2,9.3,2c2.6,0,5.5-0.5,9.3-2.3c1.6-0.8,3-1.7,4.9-2.7L66.5,37.1L66.5,37.1z"/>
					<linearGradient id="SVGID_2_" gradientUnits="userSpaceOnUse" x1="37.8918" y1="42.7371" x2="73.5085" y2="42.7371">
						<stop  offset="0" style="stop-color:#1E1E1C"/>
						<stop  offset="1" style="stop-color:#D0D0D0"/>
					</linearGradient>
					<path class="st2" d="M37.9,40.5c4.5,3.7,10.2,5.9,16,5.9v0l0,0c5.1,0,11.7-1.9,15.7-5.4l-1.5-1.9c-1.9,1-3.3,1.9-4.9,2.7
						c-3.8,1.8-6.6,2.2-9.3,2.3c-2.9,0-5.6-0.6-9.3-2c-1.6-0.6-2.9-1.6-4.9-2.3C39.2,40,38.5,40.2,37.9,40.5L37.9,40.5z"/>
					<radialGradient id="SVGID_3_" cx="63.8259" cy="37.3302" r="21.7936" gradientUnits="userSpaceOnUse">
						<stop  offset="0" style="stop-color:#F6F6F5"/>
						<stop  offset="1" style="stop-color:#646463"/>
					</radialGradient>
					<path class="st3" d="M56.6,43.7c-0.8,0.1-1.7,0.1-2.6,0.1c-3.7,0-7.4-1.2-10.6-3c-1.1-0.7-1.4-1,0.3-1.5
						c0.3-0.1,0.6-0.2,0.9-0.2c0.1,0,0.1,0,0.2,0l0.1,0l0,0c0.3,0.2,1.1,0.5,1.3,0.6c1.4,0.6,5.1,1.5,7.9,1.5v0l0,0
						c3.6,0,6.9-0.8,9.6-2.2c0.5-0.2,0.9-0.5,1.3-0.8l0.1-0.1c0.4-0.3,0.8-0.5,1.1-0.8c0.2-0.1,0.2-0.2,0.3-0.1
						c0.5,0.5,0.8,1.2,1.2,1.8l0.2,0.1c0.4,0.5,0.9,1,1.4,1.5c0.2,0.2,0.3,0.2,0,0.5c-0.5,0.4-1,0.7-1.5,1.1
						c-0.6,0.4-1.2,0.8-1.9,1.1c-2,1-4.3,1.8-6.7,2.3c3-0.6,6.3-1.9,8.9-3.7c0.9-0.7,1.1-0.9,0.8-1.3c-0.1-0.2-1.2-1.3-1.2-1.3
						C63.8,41.9,60,43.2,56.6,43.7L56.6,43.7z"/>
					<path class="st0" d="M36.4,38.9L36.4,38.9c-0.3-0.3-0.5-0.6-0.8-1c-0.2-0.3-0.5-0.7-0.7-1c-1.1-1.8-1.8-3.7-2-5.8
						c0-0.4-0.1-0.8-0.1-1.2c0-0.4,0-0.8,0-1.2l0,0c0-0.6,0.1-1.2,0.3-1.8c0.1-0.6,0.3-1.2,0.5-1.7c1-2.8,3-5.4,5.7-7.3l0,0l0,0l0,0
						c0.5-0.4,1.1-0.8,1.7-1.1c0.6-0.4,1.2-0.7,1.8-1c3.1-1.5,6.7-2.4,10.6-2.5c0.5,0,0.9,0,1.4,0c0.1,0,0.2,0,0.3,0h0l0.2,0
						c0.3,0,0.5,0,0.8,0l0.4,0l-0.3,0.4l0,0v0c-0.9,1.2-1.9,2.5-2.8,3.7l-0.9,1.1l-0.1,0.1l-0.1,0l0,0c-0.5,0-1.1,0.1-1.6,0.2
						c-0.5,0.1-1,0.2-1.5,0.3c-2.6,0.6-4.8,1.6-6.7,3l0,0l0,0l0,0c-0.3,0.2-0.6,0.5-0.9,0.8c-0.3,0.3-0.6,0.5-0.8,0.8
						c-1.3,1.4-2.2,3.1-2.5,4.9h0l0,0.1l0,0c0,0.1,0,0.2,0,0.3c0,0.1,0,0.2,0,0.3c0,0.5,0,1,0.1,1.5l0,0c0,0.2,0.1,0.4,0.1,0.6
						c0,0.2,0.1,0.4,0.1,0.6c0.3,1,0.7,1.9,1.4,2.7l0.1,0.1l-0.1,0.1l0,0h0l-3,3.9l-0.2,0.2L36.4,38.9L36.4,38.9z"/>
					<path class="st4" d="M36.6,38.7c-1.9-2.2-3.1-4.8-3.4-7.6c-0.1-0.9-0.1-1.6,0-2.4c0.3-4.2,2.7-7.9,6.4-10.7
						c3.8-2.8,9-4.5,14.7-4.5v0h0h0v0c0.7,0,1.3,0,1.9,0.1c-1.2,1.6-2.5,3.2-3.7,4.8c-3.9,0.3-7.4,1.6-10,3.5
						c-2.4,1.8-4,4.1-4.4,6.6c-0.1,0.7-0.1,1.6,0,2.3c0.2,1.4,0.8,2.8,1.7,4l0,0L36.6,38.7L36.6,38.7z"/>
					<radialGradient id="SVGID_4_" cx="45.4602" cy="15.2514" r="27.0431" gradientUnits="userSpaceOnUse">
						<stop  offset="0" style="stop-color:#F6F6F5"/>
						<stop  offset="0.7101" style="stop-color:#C2C1C1"/>
						<stop  offset="0.9134" style="stop-color:#646463"/>
					</radialGradient>
					<path class="st5" d="M36.1,38c0.4,0.5,0.4,0.7,0.8,0.2l1-1.2c-4.7-6.2-2.5-13.2,3.7-17.3c3.2-2.2,7.2-3.7,12.7-3.8
						c0.6-0.7,1-1.3,1.2-1.4c0.6-0.7,0.6-0.7-0.3-0.7c-6.5-0.1-13.4,1.7-18,6.7c-1.7,1.8-3,3.9-3.6,6.4C32.7,30.3,33.2,34.4,36.1,38
						L36.1,38z"/>
					<path class="st6" d="M37.9,36.9c0.6-0.8,1.4-1.7,1.5-1.9c0.2-0.2,0.2-0.2,0-0.4c-1.6-1.9-3.1-7.3,1.5-11.6
						c1.2-1.1,2.3-1.8,3.4-2.4c2.3-1.3,4.4-1.8,7.5-2.3c0.4-0.1,0.6,0,0.8-0.3c0.2-0.2,1-1.2,1.7-2.1c-5.5,0.1-9.5,1.6-12.7,3.7
						C35.4,23.7,33.1,30.7,37.9,36.9L37.9,36.9z"/>
					<radialGradient id="SVGID_5_" cx="38.2395" cy="21.7578" r="19.0392" gradientUnits="userSpaceOnUse">
						<stop  offset="0" style="stop-color:#1E1E1C"/>
						<stop  offset="0.7337" style="stop-color:#9D9D9C"/>
					</radialGradient>
					<path class="st7" d="M37.9,32.3c-1.1-3.5,0.3-7.1,3-9.5c2.1-1.9,5.1-3.5,7.8-4.2c2.6-0.7,3.1-2.5,5.5-2.9
						c-3.4,0-7.1,0.7-10.3,2.3c-5.1,2.4-8.5,6.6-8.6,11.4c0,1.3,0.2,2.7,0.6,3.9c0.5,1.3,1.1,2.5,2,3.6l0,0
						c-0.6-0.8-1.1-1.6-1.5-2.5c0.4,0.8,0.9,1.6,1.5,2.4c-0.1-0.1-0.1-0.1-0.1-0.2C37.5,35.1,38.5,34.3,37.9,32.3L37.9,32.3z"/>
					<path class="st8" d="M36.3,34.1c0-0.1-0.1-0.2-0.1-0.2c-0.6-1.4-0.8-2.8-0.7-4.3c0.2-4.2,2.4-7.5,6.5-10
						c-0.2,0.1-0.3,0.2-0.5,0.3c-2.1,1.5-4,3.2-5,5.6C35.3,28.3,35.1,31.2,36.3,34.1L36.3,34.1z"/>
					<path class="st9" d="M44.2,36.6c2.5-3.2,5-6.5,7.6-9.8c3.2-4.2,6.4-8.5,9.7-12.9c-3.3,4.3-6.5,8.6-9.8,12.8
						C49.2,30,46.7,33.3,44.2,36.6L44.2,36.6z"/>
					<path class="st9" d="M52.7,43.9c4.3,0.2,8.9-0.9,12.5-3.3c-2,1.1-3.9,1.9-6.1,2.5C57.1,43.7,54.9,44,52.7,43.9L52.7,43.9z"/>
					<path class="st10" d="M45,39.2c0.4,0.2,1.1,0.5,1.2,0.5c1.4,0.6,5.1,1.5,7.9,1.5v0l0,0c3.6,0,6.9-0.8,9.6-2.2
						c0.5-0.2,0.9-0.5,1.3-0.8l0.1-0.1c0.4-0.3,0.8-0.5,1.1-0.8c0.1-0.1,0.2-0.1,0.2-0.1C58.5,45.9,47.3,41.3,45,39.2L45,39.2z"/>
					<polygon class="st11" points="52.6,17.9 54,15.8 54.3,15.7 52.6,17.9 					"/>
					<polygon class="st12" points="55.7,14 54.3,15.7 54,15.8 55.7,14 					"/>
					<polygon class="st13" points="36.8,38.3 37.8,36.8 37.9,37 36.8,38.3 					"/>
					<polygon class="st14" points="39.4,35 37.9,37 37.8,36.8 39.4,35 					"/>
					<linearGradient id="SVGID_6_" gradientUnits="userSpaceOnUse" x1="69.4341" y1="12.6547" x2="42.5273" y2="47.9158">
						<stop  offset="0" style="stop-color:#F6F6F5"/>
						<stop  offset="0.8475" style="stop-color:#D0D0D0"/>
						<stop  offset="0.9979" style="stop-color:#646463"/>
					</linearGradient>
					<path class="st15" d="M44.8,39.1L44.8,39.1C44.8,39.1,44.9,39.1,44.8,39.1c6.8-8.7,13.6-17.4,20.3-26c0.5-0.7,0.6-0.9,0.2-1.2
						c-0.3-0.3-1-0.8-1.6-1.1C56.3,20.3,49.7,29.6,42,38.9c-1.1,1.3-0.2,1.6,1.2,2.4c1.1,0.6,2.4,1.1,3.6,1.5c2.9,0.9,6.1,1.3,9.1,1
						c-4.1,0.5-7.7-0.3-10.3-1.2c-0.4-0.1-0.7-0.3-1.1-0.4c-0.8-0.4-1.7-0.8-2.5-1.2c-0.8-0.4-1.6-0.8-2.5-0.7
						c-0.4,0.1-0.7,0.3-0.1,0.8c0.8,0.8,2.9,2,3.2,2.1c2.4,1.3,5,2.2,7.8,2.6c-4.1-0.5-7.8-2-10.7-4.1l0,0c-0.5-0.4-1-0.8-1.5-1.2
						c-0.2-0.2-0.2-0.1-0.1-0.4c10.6-13.6,20-25.6,21.7-28.1c0.8-1.1,1.4-1.9,1.7-2.3c0.2-0.3,0.2-0.3,0.5-0.1
						c1.1,0.7,2.2,1.4,3.4,2.1c0.5,0.3,0.4,0.3,0,0.8L44.9,39.1l0,0L44.8,39.1L44.8,39.1z"/>
					<linearGradient id="SVGID_7_" gradientUnits="userSpaceOnUse" x1="48.7796" y1="30.7909" x2="38.6727" y2="40.8139">
						<stop  offset="2.921410e-03" style="stop-color:#D0D0D0"/>
						<stop  offset="1" style="stop-color:#646463"/>
					</linearGradient>
					<path class="st16" d="M39,40.2c0.6-0.3,1.1-0.2,1.5-0.2c0.7,0.1,1,0.4,0.9,0c0-0.1,0-0.5,0.2-0.8c0.3-0.4,0.8-1,1.4-1.7
						c1.4-1.6,5.7-6.9,5.5-6.7c-0.7,0.6-1.6,1.6-2.7,2.5c-2.3,1.8-3.1,1.6-3.8,2.3c-0.5,0.7-3.2,3.8-3.7,4.6
						C38,40.5,38.2,40.5,39,40.2L39,40.2z"/>
				</g>
				<polygon class="st12" points="62.2,9.8 63.6,10.9 63.8,10.7 62.2,9.8 				"/>
			</g>
		</g>
		<g>
			<path class="st17" d="M86.3,64.5c-0.4,0-0.8-0.1-1.1-0.3c-0.3-0.2-0.6-0.5-0.8-0.8c-0.2-0.3-0.3-0.7-0.3-1.1
				c0-0.4,0.1-0.7,0.3-1.1c0.2-0.3,0.5-0.6,0.8-0.8c0.3-0.2,0.7-0.3,1.1-0.3c0.3,0,0.6,0.1,0.8,0.2c0.3,0.1,0.5,0.3,0.7,0.5
				c0.2,0.2,0.4,0.4,0.5,0.7c0.1,0.3,0.2,0.5,0.2,0.8c0,0.4-0.1,0.8-0.3,1.1c-0.2,0.3-0.5,0.6-0.8,0.8
				C87.1,64.4,86.7,64.5,86.3,64.5z M86.3,64.3c0.3,0,0.7-0.1,0.9-0.2c0.3-0.2,0.5-0.4,0.6-0.7c0.2-0.3,0.2-0.6,0.2-0.9
				c0-0.3-0.1-0.7-0.2-0.9c-0.2-0.3-0.4-0.5-0.6-0.7c-0.3-0.2-0.6-0.2-0.9-0.2c-0.3,0-0.7,0.1-0.9,0.2c-0.3,0.2-0.5,0.4-0.7,0.7
				c-0.2,0.3-0.2,0.6-0.2,0.9c0,0.3,0.1,0.7,0.2,1c0.2,0.3,0.4,0.5,0.7,0.7C85.7,64.2,86,64.3,86.3,64.3z M86.7,62.5l0.7,1.1H87
				l-0.7-1.1h-0.5v1.1h-0.3v-2.4h1.1c0.3,0,0.5,0.1,0.7,0.2c0.1,0.1,0.2,0.3,0.2,0.5c0,0.2-0.1,0.4-0.2,0.5
				C87.1,62.4,86.9,62.5,86.7,62.5z M85.8,62.2h0.7c0.2,0,0.3,0,0.5-0.1c0.1-0.1,0.2-0.2,0.2-0.3c0-0.2-0.1-0.3-0.2-0.3
				c-0.1-0.1-0.3-0.1-0.4-0.1h-0.7V62.2z"/>
		</g>
		<g>
			<path class="st17" d="M15.2,91.1c0.1,0.1,0.2,0.2,0.3,0.3s0.3,0.1,0.4,0.2c0.2,0,0.3,0.1,0.5,0.1c0.1,0,0.2,0,0.3,0
				c0.1,0,0.2-0.1,0.3-0.1c0.1-0.1,0.2-0.2,0.3-0.3c0.1-0.1,0.1-0.2,0.1-0.4c0-0.1,0-0.2-0.1-0.3c-0.1-0.1-0.1-0.2-0.2-0.2
				c-0.1-0.1-0.2-0.1-0.3-0.1c-0.1,0-0.2-0.1-0.3-0.1l-0.9-0.2c-0.1,0-0.2-0.1-0.3-0.1c-0.1,0-0.2-0.1-0.3-0.2
				c-0.1-0.1-0.1-0.2-0.2-0.3s-0.1-0.2-0.1-0.4c0-0.1,0-0.2,0.1-0.3s0.1-0.3,0.2-0.4c0.1-0.1,0.2-0.2,0.4-0.3s0.4-0.1,0.7-0.1
				c0.2,0,0.4,0,0.6,0.1c0.2,0.1,0.3,0.1,0.5,0.2c0.1,0.1,0.2,0.2,0.3,0.4s0.1,0.3,0.1,0.5h-0.4c0-0.2,0-0.3-0.1-0.4
				c-0.1-0.1-0.1-0.2-0.2-0.3c-0.1-0.1-0.2-0.1-0.3-0.2c-0.1,0-0.3-0.1-0.4-0.1c-0.1,0-0.3,0-0.4,0c-0.1,0-0.2,0.1-0.3,0.1
				c-0.1,0.1-0.2,0.1-0.2,0.2s-0.1,0.2-0.1,0.4c0,0.1,0,0.2,0,0.2c0,0.1,0.1,0.1,0.1,0.2c0.1,0,0.1,0.1,0.2,0.1s0.2,0.1,0.2,0.1
				l1,0.2c0.1,0,0.3,0.1,0.4,0.1c0.1,0.1,0.2,0.1,0.3,0.2c0.1,0.1,0.2,0.2,0.2,0.3c0.1,0.1,0.1,0.3,0.1,0.4c0,0,0,0.1,0,0.2
				s0,0.2-0.1,0.2c0,0.1-0.1,0.2-0.2,0.3s-0.2,0.2-0.3,0.2c-0.1,0.1-0.3,0.1-0.4,0.2c-0.2,0-0.4,0.1-0.6,0.1s-0.5,0-0.7-0.1
				c-0.2-0.1-0.4-0.1-0.5-0.3c-0.1-0.1-0.3-0.3-0.3-0.4c-0.1-0.2-0.1-0.4-0.1-0.6h0.4C15.1,90.8,15.1,91,15.2,91.1z"/>
			<path class="st17" d="M23.1,87.9c0.2,0,0.3,0,0.5,0.1s0.3,0.1,0.4,0.2s0.2,0.2,0.2,0.4c0.1,0.1,0.1,0.3,0.1,0.5
				c0,0.2,0,0.3-0.1,0.5c-0.1,0.1-0.1,0.3-0.2,0.4s-0.2,0.2-0.4,0.2c-0.1,0.1-0.3,0.1-0.5,0.1h-1.4v1.7h-0.4v-4H23.1z M23,89.9
				c0.3,0,0.5-0.1,0.6-0.2s0.2-0.3,0.2-0.6c0-0.3-0.1-0.5-0.2-0.6s-0.4-0.2-0.6-0.2h-1.3v1.6H23z"/>
			<path class="st17" d="M30.2,87.9v0.3h-2.4v1.5H30V90h-2.2v1.6h2.4v0.3h-2.8v-4H30.2z"/>
			<path class="st17" d="M36.2,87.9v0.3h-2.4v1.5H36V90h-2.2v1.6h2.4v0.3h-2.8v-4H36.2z"/>
			<path class="st17" d="M40.8,87.9c0.6,0,1.1,0.2,1.4,0.5c0.3,0.3,0.5,0.8,0.5,1.5c0,0.7-0.2,1.2-0.5,1.5c-0.3,0.3-0.8,0.5-1.4,0.5
				h-1.4v-4H40.8z M40.6,91.6c0.3,0,0.5,0,0.7-0.1s0.4-0.2,0.5-0.3c0.1-0.1,0.2-0.3,0.3-0.5s0.1-0.5,0.1-0.8c0-0.3,0-0.6-0.1-0.8
				s-0.2-0.4-0.3-0.5c-0.1-0.1-0.3-0.2-0.5-0.3c-0.2-0.1-0.5-0.1-0.7-0.1h-0.8v3.4H40.6z"/>
			<path class="st17" d="M48,91.8C47.8,92,47.6,92,47.4,92c-0.2,0-0.3,0-0.5-0.1s-0.3-0.1-0.4-0.2c-0.1-0.1-0.2-0.2-0.3-0.4
				c-0.1-0.1-0.1-0.3-0.1-0.5c0-0.1,0-0.3,0.1-0.4c0.1-0.1,0.1-0.2,0.2-0.3c0.1-0.1,0.2-0.2,0.3-0.3s0.2-0.1,0.3-0.2
				c-0.1-0.1-0.1-0.1-0.2-0.2c-0.1-0.1-0.1-0.1-0.2-0.2c0-0.1-0.1-0.2-0.1-0.2c0-0.1,0-0.2,0-0.3c0-0.1,0-0.2,0.1-0.3
				c0-0.1,0.1-0.2,0.2-0.3c0.1-0.1,0.2-0.1,0.3-0.2c0.1,0,0.2-0.1,0.3-0.1c0.1,0,0.2,0,0.3,0.1c0.1,0,0.2,0.1,0.3,0.2
				c0.1,0.1,0.1,0.2,0.2,0.3c0,0.1,0.1,0.2,0.1,0.3s0,0.2-0.1,0.3c0,0.1-0.1,0.2-0.2,0.3s-0.2,0.2-0.3,0.2s-0.2,0.1-0.3,0.2l0.9,1.1
				c0-0.1,0.1-0.2,0.1-0.3c0-0.1,0-0.2,0-0.4H49c0,0.1,0,0.3,0,0.4c0,0.2-0.1,0.4-0.2,0.5l0.7,0.8H49l-0.4-0.5
				C48.4,91.6,48.2,91.7,48,91.8z M47,90.1c-0.1,0.1-0.2,0.1-0.3,0.2c-0.1,0.1-0.1,0.2-0.2,0.3c0,0.1-0.1,0.2-0.1,0.3
				c0,0.1,0,0.2,0.1,0.3c0,0.1,0.1,0.2,0.2,0.3c0.1,0.1,0.2,0.1,0.3,0.2c0.1,0,0.2,0.1,0.3,0.1c0.2,0,0.4-0.1,0.5-0.2
				c0.2-0.1,0.3-0.2,0.4-0.4l-1-1.2C47.2,90,47.1,90,47,90.1z M47.1,88.3C47,88.4,47,88.6,47,88.7c0,0.1,0,0.1,0,0.2
				c0,0.1,0.1,0.1,0.1,0.2c0,0.1,0.1,0.1,0.1,0.2s0.1,0.1,0.1,0.2c0.1,0,0.1-0.1,0.2-0.1s0.1-0.1,0.2-0.2c0.1-0.1,0.1-0.1,0.1-0.2
				c0-0.1,0.1-0.2,0.1-0.3c0-0.2-0.1-0.3-0.2-0.4c-0.1-0.1-0.2-0.1-0.4-0.1S47.2,88.2,47.1,88.3z"/>
			<path class="st17" d="M54.5,87.9c0.2,0,0.3,0,0.5,0.1c0.1,0.1,0.3,0.1,0.4,0.2s0.2,0.2,0.2,0.4s0.1,0.3,0.1,0.5
				c0,0.2,0,0.3-0.1,0.5s-0.1,0.3-0.2,0.4s-0.2,0.2-0.4,0.2c-0.1,0.1-0.3,0.1-0.5,0.1h-1.4v1.7h-0.4v-4H54.5z M54.5,89.9
				c0.3,0,0.5-0.1,0.6-0.2s0.2-0.3,0.2-0.6c0-0.3-0.1-0.5-0.2-0.6s-0.4-0.2-0.6-0.2h-1.3v1.6H54.5z"/>
			<path class="st17" d="M59.3,87.9v2.5c0,0.2,0,0.4,0.1,0.6s0.1,0.3,0.2,0.4c0.1,0.1,0.2,0.2,0.4,0.2c0.1,0,0.3,0.1,0.5,0.1
				c0.2,0,0.4,0,0.5-0.1c0.1,0,0.3-0.1,0.4-0.2c0.1-0.1,0.2-0.2,0.2-0.4c0.1-0.2,0.1-0.4,0.1-0.6v-2.5h0.4v2.6c0,0.2,0,0.4-0.1,0.6
				s-0.2,0.3-0.3,0.5c-0.1,0.1-0.3,0.2-0.5,0.3C61,92,60.8,92,60.5,92c-0.3,0-0.5,0-0.7-0.1c-0.2-0.1-0.4-0.2-0.5-0.3
				c-0.1-0.1-0.2-0.3-0.3-0.5c-0.1-0.2-0.1-0.4-0.1-0.6v-2.6H59.3z"/>
			<path class="st17" d="M67.4,87.9c0.2,0,0.3,0,0.5,0.1c0.1,0,0.3,0.1,0.4,0.2c0.1,0.1,0.2,0.2,0.3,0.3c0.1,0.1,0.1,0.3,0.1,0.5
				c0,0.3-0.1,0.5-0.2,0.7s-0.3,0.3-0.6,0.4v0c0.1,0,0.2,0.1,0.3,0.1s0.2,0.1,0.2,0.2s0.1,0.2,0.1,0.3c0,0.1,0,0.2,0,0.3
				c0,0.1,0,0.2,0,0.2s0,0.2,0,0.3c0,0.1,0,0.2,0.1,0.3c0,0.1,0.1,0.2,0.1,0.2h-0.4c0,0,0-0.1-0.1-0.1c0-0.1,0-0.1,0-0.2
				s0-0.1,0-0.2c0-0.1,0-0.1,0-0.1c0-0.1,0-0.3,0-0.4c0-0.1-0.1-0.3-0.1-0.4c-0.1-0.1-0.1-0.2-0.2-0.3c-0.1-0.1-0.2-0.1-0.4-0.1H66
				v1.8h-0.4v-4H67.4z M67.4,89.8c0.1,0,0.2,0,0.3-0.1c0.1,0,0.2-0.1,0.3-0.2c0.1-0.1,0.1-0.1,0.2-0.2c0-0.1,0.1-0.2,0.1-0.3
				c0-0.2-0.1-0.4-0.2-0.6c-0.1-0.1-0.4-0.2-0.7-0.2H66v1.6H67.4z"/>
			<path class="st17" d="M72.5,87.9v4h-0.4v-4H72.5z"/>
			<path class="st17" d="M78.8,87.9v0.3h-1.4v3.7H77v-3.7h-1.4v-0.3H78.8z"/>
			<path class="st17" d="M81.6,87.9H82l1.3,2l1.3-2h0.5l-1.6,2.4v1.7h-0.4v-1.7L81.6,87.9z"/>
		</g>
		<g>
			<path class="st18" d="M68.4,75.2c0.4-1,0.7-2.2,1-3.5l2.5-13.3H67l-2.6,14c-0.3,1.3-0.6,2.2-0.9,2.8H68.4z"/>
			<path class="st18" d="M37.4,63.9c0.1,0.3,0.1,0.7,0.1,1c0,2.3-0.9,9.1-2.8,11c-0.3,0.3-0.9,0.5-1.4,0.5H21.5l0-0.1h0l3.4-17.8
				h-4.8L16,80.7h13.6h0c0,0,0.3,0,2,0c3.3,0,5.1-0.9,6.5-2.3c2.8-2.8,4.3-8.2,4.3-12.9c0-0.4,0-1-0.1-1.5H37.4z"/>
			<path class="st18" d="M57.7,58.5c0,0-18.8,0-20,0c-3.1,0-4.6,1-5.9,2.3c-3,2.9-4.4,8.2-4.4,12.7c0,0.5,0,1.1,0.1,1.8h4.8
				c-0.1-0.4-0.1-0.9-0.1-1.2c0-3,0.9-8.4,2.6-10.4c0,0,0,0,0,0c0.1-0.2,0.3-0.4,0.6-0.6c0,0,0,0,0,0c0.2-0.1,0.4-0.2,0.6-0.2
				c0.2,0,0.4-0.1,0.6-0.1h11.3l-3.4,17.9h4.8l3.4-17.9h4.4L57.7,58.5z"/>
			<path class="st18" d="M80.4,62.7c1,0,1.7,0.3,2.3,0.6l1.3-4.1c-0.5-0.3-1.6-0.7-3.4-0.7c-4.5,0-7.5,2.9-7.5,7.2
				c0,1.8,0.9,3.3,2.6,4.9c1.4,1.3,2.1,2,2.1,3.3c0,1.5-1.5,2.5-3.1,2.5c-0.5,0-12.2,0-12.2,0c-0.8,0-1.7-0.6-1.6-1.8
				c0-0.6,0.1-1.4,0.3-2.3l2.6-13.8h-4.8l-2.5,13.3c-0.3,1.4-0.4,2.7-0.4,3.6c0,3.2,1.5,5.3,5.3,5.3c3.4,0,12.1,0,13.7,0
				c4.2,0,7.5-2.6,7.5-7.3c0-1.6-0.7-3.5-2.6-5.2c-1.9-1.6-2.1-2.3-2.1-3.1C77.8,63.6,78.9,62.7,80.4,62.7z"/>
		</g>
	</g>
</g>
</svg>
